<mxfile host="app.diagrams.net" agent="Mozilla/5.0 (Windows NT 10.0; Win64; x64) AppleWebKit/537.36 (KHTML, like Gecko) Chrome/141.0.0.0 Safari/537.36 Edg/141.0.0.0" version="28.2.5">
  <diagram name="Page-1" id="SV9Ggzu6L_Reg0SNPD1p">
    <mxGraphModel dx="1787" dy="1060" grid="0" gridSize="10" guides="1" tooltips="1" connect="1" arrows="1" fold="1" page="0" pageScale="1" pageWidth="850" pageHeight="1100" math="0" shadow="0">
      <root>
        <mxCell id="0" />
        <mxCell id="1" parent="0" />
        <mxCell id="Sjp3-aYs_TDSdEmW8NzQ-11" style="edgeStyle=orthogonalEdgeStyle;rounded=0;orthogonalLoop=1;jettySize=auto;html=1;" edge="1" parent="1" source="Sjp3-aYs_TDSdEmW8NzQ-2">
          <mxGeometry relative="1" as="geometry">
            <mxPoint x="174.666748046875" y="-248" as="targetPoint" />
          </mxGeometry>
        </mxCell>
        <mxCell id="Sjp3-aYs_TDSdEmW8NzQ-2" value="PR Request" style="rounded=1;whiteSpace=wrap;html=1;" vertex="1" parent="1">
          <mxGeometry x="-35" y="-278" width="120" height="60" as="geometry" />
        </mxCell>
        <mxCell id="Sjp3-aYs_TDSdEmW8NzQ-12" style="edgeStyle=orthogonalEdgeStyle;rounded=0;orthogonalLoop=1;jettySize=auto;html=1;entryX=0.5;entryY=0;entryDx=0;entryDy=0;" edge="1" parent="1" source="Sjp3-aYs_TDSdEmW8NzQ-3" target="Sjp3-aYs_TDSdEmW8NzQ-9">
          <mxGeometry relative="1" as="geometry">
            <Array as="points">
              <mxPoint x="271" y="-181" />
              <mxPoint x="-197" y="-181" />
            </Array>
          </mxGeometry>
        </mxCell>
        <mxCell id="Sjp3-aYs_TDSdEmW8NzQ-13" style="edgeStyle=orthogonalEdgeStyle;rounded=0;orthogonalLoop=1;jettySize=auto;html=1;entryX=0.5;entryY=0;entryDx=0;entryDy=0;" edge="1" parent="1" source="Sjp3-aYs_TDSdEmW8NzQ-3" target="Sjp3-aYs_TDSdEmW8NzQ-8">
          <mxGeometry relative="1" as="geometry">
            <Array as="points">
              <mxPoint x="271" y="-181" />
              <mxPoint x="-29" y="-181" />
            </Array>
          </mxGeometry>
        </mxCell>
        <mxCell id="Sjp3-aYs_TDSdEmW8NzQ-25" style="edgeStyle=orthogonalEdgeStyle;rounded=0;orthogonalLoop=1;jettySize=auto;html=1;entryX=0.5;entryY=0;entryDx=0;entryDy=0;" edge="1" parent="1" source="Sjp3-aYs_TDSdEmW8NzQ-3" target="Sjp3-aYs_TDSdEmW8NzQ-6">
          <mxGeometry relative="1" as="geometry" />
        </mxCell>
        <mxCell id="Sjp3-aYs_TDSdEmW8NzQ-26" style="edgeStyle=orthogonalEdgeStyle;rounded=0;orthogonalLoop=1;jettySize=auto;html=1;entryX=0.5;entryY=0;entryDx=0;entryDy=0;" edge="1" parent="1" source="Sjp3-aYs_TDSdEmW8NzQ-3" target="Sjp3-aYs_TDSdEmW8NzQ-5">
          <mxGeometry relative="1" as="geometry">
            <Array as="points">
              <mxPoint x="271" y="-181" />
              <mxPoint x="475" y="-181" />
            </Array>
          </mxGeometry>
        </mxCell>
        <mxCell id="Sjp3-aYs_TDSdEmW8NzQ-27" style="edgeStyle=orthogonalEdgeStyle;rounded=0;orthogonalLoop=1;jettySize=auto;html=1;" edge="1" parent="1" source="Sjp3-aYs_TDSdEmW8NzQ-3">
          <mxGeometry relative="1" as="geometry">
            <mxPoint x="644.7778116861982" y="-150" as="targetPoint" />
            <Array as="points">
              <mxPoint x="271" y="-182" />
              <mxPoint x="645" y="-182" />
            </Array>
          </mxGeometry>
        </mxCell>
        <mxCell id="Sjp3-aYs_TDSdEmW8NzQ-28" style="edgeStyle=orthogonalEdgeStyle;rounded=0;orthogonalLoop=1;jettySize=auto;html=1;entryX=0.5;entryY=0;entryDx=0;entryDy=0;" edge="1" parent="1" source="Sjp3-aYs_TDSdEmW8NzQ-3" target="Sjp3-aYs_TDSdEmW8NzQ-7">
          <mxGeometry relative="1" as="geometry" />
        </mxCell>
        <mxCell id="Sjp3-aYs_TDSdEmW8NzQ-3" value="AWS Codebuild/Codepipeline" style="rounded=1;whiteSpace=wrap;html=1;" vertex="1" parent="1">
          <mxGeometry x="175" y="-279" width="192" height="61" as="geometry" />
        </mxCell>
        <mxCell id="Sjp3-aYs_TDSdEmW8NzQ-4" value="Storage Integrations" style="rounded=1;whiteSpace=wrap;html=1;" vertex="1" parent="1">
          <mxGeometry x="583" y="-146" width="120" height="60" as="geometry" />
        </mxCell>
        <mxCell id="Sjp3-aYs_TDSdEmW8NzQ-5" value="Oauth" style="rounded=1;whiteSpace=wrap;html=1;" vertex="1" parent="1">
          <mxGeometry x="415" y="-146" width="120" height="60" as="geometry" />
        </mxCell>
        <mxCell id="Sjp3-aYs_TDSdEmW8NzQ-6" value="Roles" style="rounded=1;whiteSpace=wrap;html=1;" vertex="1" parent="1">
          <mxGeometry x="247" y="-146" width="120" height="60" as="geometry" />
        </mxCell>
        <mxCell id="Sjp3-aYs_TDSdEmW8NzQ-7" value="Warehouses" style="rounded=1;whiteSpace=wrap;html=1;" vertex="1" parent="1">
          <mxGeometry x="79" y="-146" width="120" height="60" as="geometry" />
        </mxCell>
        <mxCell id="Sjp3-aYs_TDSdEmW8NzQ-8" value="Schemas" style="rounded=1;whiteSpace=wrap;html=1;" vertex="1" parent="1">
          <mxGeometry x="-89" y="-146" width="120" height="60" as="geometry" />
        </mxCell>
        <mxCell id="Sjp3-aYs_TDSdEmW8NzQ-9" value="Databases" style="rounded=1;whiteSpace=wrap;html=1;" vertex="1" parent="1">
          <mxGeometry x="-257" y="-146" width="120" height="60" as="geometry" />
        </mxCell>
        <mxCell id="Sjp3-aYs_TDSdEmW8NzQ-31" style="edgeStyle=orthogonalEdgeStyle;rounded=0;orthogonalLoop=1;jettySize=auto;html=1;entryX=0;entryY=0.5;entryDx=0;entryDy=0;" edge="1" parent="1" target="Sjp3-aYs_TDSdEmW8NzQ-2">
          <mxGeometry relative="1" as="geometry">
            <mxPoint x="-155" y="-248.42857142857133" as="sourcePoint" />
          </mxGeometry>
        </mxCell>
        <mxCell id="Sjp3-aYs_TDSdEmW8NzQ-33" value="End User" style="shape=umlActor;verticalLabelPosition=bottom;verticalAlign=top;html=1;outlineConnect=0;" vertex="1" parent="1">
          <mxGeometry x="-184" y="-284" width="30" height="60" as="geometry" />
        </mxCell>
      </root>
    </mxGraphModel>
  </diagram>
</mxfile>
